<?xml version="1.0" encoding="utf-8"?>
<!-- Generator: Adobe Illustrator 26.4.1, SVG Export Plug-In . SVG Version: 6.00 Build 0)  -->
<svg version="1.1" id="Layer_1" xmlns="http://www.w3.org/2000/svg" xmlns:xlink="http://www.w3.org/1999/xlink" x="0px" y="0px"
	 viewBox="0 0 714 714" style="enable-background:new 0 0 714 714;" xml:space="preserve">
<style type="text/css">
	.st0{fill:#CACED3;}
	.st1{fill:#0075B7;}
	.st2{fill:#3AC6F3;}
	.st3{fill:#84D5F7;}
	.st4{fill:#00A9CE;}
	.st5{fill:#008B9F;}
	.st6{fill:#00A8CD;}
	.st7{fill:#FFFFFF;}
	.st8{fill:#87D0ED;}
	.st9{fill:#3DBEE7;}
	.st10{fill:#D99A38;}
	.st11{fill:#BF7536;}
	.st12{fill:#F8BF6B;}
	.st13{fill:#BF7537;}
	.st14{fill:#F2BE6B;}
	.st15{fill:#D99A31;}
	.st16{fill:#C07534;}
	.st17{fill:#EFBD6A;}
	.st18{fill:#656D70;}
	.st19{fill:#3B4343;}
	.st20{fill:#939AA1;}
	.st21{fill:#9E3127;}
	.st22{fill:#5C6366;}
	.st23{fill:#7C3B29;}
	.st24{fill:#432517;}
	.st25{fill:#A6513C;}
	.st26{fill:#979EA5;}
	.st27{fill:#8F5D41;}
	.st28{fill:#6A4227;}
	.st29{fill:#CF835E;}
	.st30{fill:#4A5253;}
	.st31{fill:#7A8287;}
	.st32{fill:#CA397E;}
	.st33{fill:#942D5D;}
	.st34{fill:#E0719D;}
	.st35{fill:#94325D;}
	.st36{fill:#DF719C;}
</style>
<g>
	<g>
		<polygon points="657,123.6700439 657,590.3400269 623.6699829,590.3400269 623.6699829,623.6700439 590.3399658,623.6700439 
			590.3399658,657 123.6699829,657 123.6699829,623.6700439 90.3399658,623.6700439 90.3399658,590.3400269 57,590.3400269 
			57,122.6700439 90.3399658,122.6700439 90.3399658,90.3400269 123.6699829,90.3400269 123.6699829,57 590.3399658,57 
			590.3399658,90.3400269 623.6699829,90.3400269 623.6699829,123.6700439 		"/>
		<g>
			<polygon class="st0" points="623.666687,123.6666641 590.333374,123.6666641 590.333374,90.3332901 123.6666641,90.3332901 
				123.6666641,123.6666641 90.3333511,123.6666641 90.3333511,590.333313 123.6666641,590.333313 123.6666641,623.666687 
				590.333374,623.666687 590.333374,590.333313 623.666687,590.333313 			"/>
		</g>
	</g>
	<rect x="323.6666565" y="123.6666641" class="st1" width="66.6666641" height="366.6666565"/>
	<rect x="323.6666565" y="523.666687" class="st1" width="66.6666641" height="66.6666641"/>
</g>
</svg>
