<?xml version="1.0" encoding="utf-8"?>
<!-- Generator: Adobe Illustrator 26.3.1, SVG Export Plug-In . SVG Version: 6.00 Build 0)  -->
<svg version="1.1" id="Layer_1" xmlns="http://www.w3.org/2000/svg" xmlns:xlink="http://www.w3.org/1999/xlink" x="0px" y="0px"
	 viewBox="0 0 714 714" style="enable-background:new 0 0 714 714;" xml:space="preserve">
<g>
	<path style="fill:#AC7C15;" d="M375.7922363,144.8753204l46.0418701,141.7023468
		c1.8710632,5.7585449,7.2373352,9.6573792,13.2922058,9.6573792h148.9946594
		c13.5391846,0,19.168457,17.3251953,8.2150879,25.2832947L471.796814,409.0952148
		c-4.8984985,3.55896-6.9482422,9.8674011-5.077179,15.625946l46.0419006,141.7023621
		c4.1838379,12.8764648-10.553894,23.5840454-21.5072632,15.6259155l-120.5392151-87.5768738
		c-4.8985291-3.55896-11.5315857-3.55896-16.4301147,0l-120.5391998,87.5768738
		c-10.9533997,7.9581299-25.6911011-2.7494507-21.5072632-15.6259155l46.0418854-141.7023621
		c1.8710632-5.7585449-0.1786804-12.0669861-5.077179-15.625946l-120.5392303-87.5768738
		c-10.953392-7.9580994-5.3240967-25.2832947,8.2150574-25.2832947h148.9946747
		c6.0548706,0,11.4211426-3.8988342,13.2922058-9.6573792l46.0418701-141.7023468
		C353.3916016,131.9988403,371.6083984,131.9988403,375.7922363,144.8753204z"/>
	<path style="fill:#F4D028;" d="M364.7922363,138.8753204l46.0418701,141.7023468
		c1.8710632,5.7585449,7.2373352,9.6573792,13.2922058,9.6573792h148.9946594
		c13.5391846,0,19.168457,17.3251953,8.2150879,25.2832947L460.796814,403.0952148
		c-4.8984985,3.55896-6.9482422,9.8674011-5.077179,15.625946l46.0419006,141.7023621
		c4.1838074,12.8764648-10.553894,23.5840454-21.5072632,15.6259155l-120.5392151-87.5768738
		c-4.8985291-3.55896-11.5315857-3.55896-16.4301147,0l-120.5391998,87.5768738
		c-10.9533997,7.9581299-25.6911011-2.7494507-21.5072632-15.6259155l46.0418701-141.7023621
		c1.8710632-5.7585449-0.1786652-12.0669861-5.0771637-15.625946l-120.5392303-87.5768738
		c-10.953392-7.9580994-5.3240967-25.2832947,8.2150574-25.2832947h148.9946747
		c6.0548706,0,11.4211426-3.8988342,13.2922058-9.6573792l46.0418701-141.7023468
		C342.3916016,125.9988403,360.6083984,125.9988403,364.7922363,138.8753204z"/>
	<path style="fill:#F4E497;" d="M377.0803833,419.6446838c-23.8039856,25.2489014-49.9564209,47.7797546-76.7265625,69.6878662
		c-26.9566956,21.6803894-54.4060822,42.6095276-84.0465393,60.6592102
		c23.7874451-25.267395,49.9412537-47.7972107,76.7264404-69.6880188
		C320.0042114,458.6416626,347.4544373,437.7141113,377.0803833,419.6446838z"/>
	<path style="fill:#F4E497;" d="M429.3061829,308.6971436c-24.9773865,27.1612549-52.3549194,51.6463623-80.357605,75.5193481
		c-28.1939392,23.6487732-56.8989258,46.5614014-87.8600464,66.6417847
		c24.9604492-27.1795654,52.3394165-51.6636047,80.3574524-75.5195618
		C369.6541443,351.7079468,398.3600159,328.796875,429.3061829,308.6971436z"/>
</g>
</svg>
